<svg width="16" height="16" viewBox="0 0 16 16" fill="none" xmlns="http://www.w3.org/2000/svg">
<path d="M5.33333 15.3333C6.06971 15.3333 6.66667 14.7364 6.66667 14C6.66667 13.2636 6.06971 12.6667 5.33333 12.6667C4.59695 12.6667 4 13.2636 4 14C4 14.7364 4.59695 15.3333 5.33333 15.3333Z" stroke="white" stroke-linecap="round" stroke-linejoin="round"/>
<path d="M13.3333 15.3333C14.0697 15.3333 14.6667 14.7364 14.6667 14C14.6667 13.2636 14.0697 12.6667 13.3333 12.6667C12.597 12.6667 12 13.2636 12 14C12 14.7364 12.597 15.3333 13.3333 15.3333Z" stroke="white" stroke-linecap="round" stroke-linejoin="round"/>
<path d="M3.78002 3.99999H15.3334L14.2134 9.59332C14.1524 9.90025 13.9854 10.176 13.7417 10.3722C13.4979 10.5684 13.1929 10.6727 12.88 10.6667H5.83335C5.50781 10.6694 5.1925 10.553 4.94689 10.3393C4.70128 10.1256 4.54233 9.82945 4.50002 9.50666L3.48669 1.82666C3.44466 1.50615 3.28764 1.21182 3.04482 0.998435C2.80201 0.785052 2.48994 0.667146 2.16669 0.666656H0.666687" stroke="white" stroke-linecap="round" stroke-linejoin="round"/>
</svg>
